<svg width="162" height="36" fill="none" xmlns="http://www.w3.org/2000/svg"><g clip-path="url(#a)"><path d="M9.467 14.733H2l3.2 19.2h25.6l3.2-19.2h-7.467m-17.066 0 3.78-11.34a2.133 2.133 0 0 1 2.024-1.46h5.458c.918 0 1.733.588 2.024 1.46l3.78 11.34m-17.066 0h17.066M18 14.733v19.2M11.6 33.933l-2.133-19.2M24.4 33.933l2.133-19.2M32.933 21.133H3.067M31.867 27.533H4.133" stroke="#121923" stroke-width="2.56"/><path d="M41.936 25V12.636h8.62v2.427h-5.632V17.6h5.192v2.433h-5.192v2.541h5.633V25h-8.621Zm16.426-7.317v2.27H52.64v-2.27h5.723Zm13.307-.567h-3.018c-.04-.31-.123-.59-.248-.84a2.04 2.04 0 0 0-1.225-1.044 2.799 2.799 0 0 0-.924-.145c-.6 0-1.117.147-1.552.441-.43.294-.762.718-.996 1.274-.229.555-.344 1.227-.344 2.016 0 .821.117 1.51.35 2.065.238.551.57.968.996 1.25.431.277.94.416 1.528.416a3 3 0 0 0 .9-.127c.273-.084.513-.207.718-.368.21-.165.38-.364.513-.598a2.44 2.44 0 0 0 .284-.803l3.018.019a4.571 4.571 0 0 1-.477 1.617 5.166 5.166 0 0 1-1.08 1.455 5.105 5.105 0 0 1-1.679 1.039c-.656.257-1.408.386-2.258.386-1.118 0-2.12-.245-3.006-.736-.881-.495-1.577-1.216-2.089-2.162-.51-.945-.766-2.097-.766-3.453 0-1.36.26-2.513.778-3.459.52-.946 1.222-1.664 2.107-2.155.886-.491 1.878-.737 2.977-.737.748 0 1.44.105 2.076.314a5.042 5.042 0 0 1 1.678.906c.483.394.876.88 1.178 1.455.301.575.489 1.233.561 1.974Zm13.38 1.702c0 1.36-.262 2.514-.785 3.46-.523.945-1.232 1.664-2.125 2.155-.89.49-1.888.736-2.995.736-1.11 0-2.11-.247-3-.742-.89-.495-1.596-1.214-2.119-2.156-.52-.945-.779-2.097-.779-3.453 0-1.36.26-2.513.779-3.459.523-.946 1.23-1.664 2.119-2.155.89-.491 1.89-.737 3-.737 1.107 0 2.105.246 2.995.737.893.49 1.602 1.21 2.125 2.155.523.946.785 2.099.785 3.46Zm-3.055 0c0-.805-.115-1.485-.344-2.04-.226-.556-.552-.976-.978-1.262-.423-.286-.932-.429-1.528-.429-.591 0-1.1.143-1.527.429-.427.286-.755.706-.984 1.262-.225.555-.338 1.235-.338 2.04 0 .805.113 1.485.338 2.04.23.556.557.977.984 1.262.427.286.936.429 1.527.429.596 0 1.105-.143 1.528-.429.426-.285.752-.706.978-1.261.23-.556.344-1.236.344-2.04Zm4.799-6.182h3.701l3.139 7.655h.145l3.139-7.655h3.701V25h-2.91v-7.595h-.103l-2.97 7.517h-1.859l-2.97-7.559h-.103V25h-2.91V12.636Zm15.689 0h3.7l3.139 7.655h.145l3.14-7.655h3.7V25h-2.91v-7.595h-.102l-2.97 7.517h-1.86l-2.97-7.559h-.103V25h-2.909V12.636ZM118.17 25V12.636h8.621v2.427h-5.633V17.6h5.192v2.433h-5.192v2.541h5.633V25h-8.621Zm10.492 0V12.636h5.108c.925 0 1.724.167 2.396.501.676.33 1.198.805 1.564 1.425.366.616.549 1.346.549 2.192 0 .857-.187 1.585-.561 2.185-.375.596-.906 1.05-1.594 1.364-.688.31-1.503.465-2.445.465h-3.23v-2.354h2.675c.45 0 .827-.059 1.128-.175a1.42 1.42 0 0 0 .695-.544c.157-.245.235-.56.235-.941 0-.383-.078-.699-.235-.948a1.418 1.418 0 0 0-.695-.568c-.305-.128-.682-.193-1.128-.193h-1.473V25h-2.989Zm6.961-5.65 3.079 5.65h-3.26l-3.019-5.65h3.2Zm15.518-2.234h-3.019c-.04-.31-.122-.59-.247-.84a2.048 2.048 0 0 0-.495-.64 2.112 2.112 0 0 0-.731-.404 2.793 2.793 0 0 0-.923-.145c-.6 0-1.117.147-1.552.441-.43.294-.762.718-.996 1.274-.229.555-.344 1.227-.344 2.016 0 .821.117 1.51.35 2.065.238.551.57.968.996 1.25.431.277.94.416 1.528.416.33 0 .629-.042.899-.127.274-.084.513-.207.718-.368a2.03 2.03 0 0 0 .514-.598 2.45 2.45 0 0 0 .283-.803l3.019.019a4.578 4.578 0 0 1-.477 1.617 5.171 5.171 0 0 1-1.081 1.455 5.107 5.107 0 0 1-1.678 1.039c-.656.257-1.409.386-2.258.386-1.119 0-2.121-.245-3.006-.736-.882-.495-1.578-1.216-2.089-2.162-.511-.945-.767-2.097-.767-3.453 0-1.36.26-2.513.779-3.459.519-.946 1.222-1.664 2.107-2.155.885-.491 1.877-.737 2.976-.737a6.61 6.61 0 0 1 2.077.314 5.04 5.04 0 0 1 1.678.906c.483.394.876.88 1.177 1.455.302.575.489 1.233.562 1.974Zm1.71 7.884V12.636h8.621v2.427h-5.633V17.6h5.192v2.433h-5.192v2.541h5.633V25h-8.621Z" fill="#121923"/></g><defs><clipPath id="a"><path fill="#fff" d="M0 0h162v36H0z"/></clipPath></defs></svg>